<svg width="89" height="61" viewBox="0 0 89 61" fill="none" xmlns="http://www.w3.org/2000/svg">
<path d="M34.5145 0.00495246C47.3959 -0.135169 68.7245 2.71869 69.409 5.94831C69.8199 7.89066 69.9407 10.6784 69.7957 13.8839C71.075 13.1785 72.5639 12.7141 74.2684 12.7139C77.4975 12.714 79.9433 13.2069 81.907 14.2803C83.8898 15.3643 85.0516 16.8711 85.9422 18.1065C86.681 19.1314 87.1714 20.4595 87.4969 21.7647C87.836 23.1245 88.0526 24.6918 88.118 26.3546C88.248 29.6617 87.7883 33.5779 86.2801 37.212C84.6231 41.2042 81.0749 44.2756 77.7215 46.337C74.3665 48.3992 70.6329 49.8 68.0067 50.0635C65.4619 50.3187 62.481 49.7973 60.3602 49.3135C60.0086 49.2334 59.6715 49.1507 59.3524 49.0704C57.0763 52.5822 54.1338 55.5171 49.6736 57.7452C42.6682 61.2448 30.6531 59.4444 30.6531 59.4444C30.6374 59.443 23.7343 58.8286 19.785 57.0372C15.8312 55.2436 8.21259 47.1473 4.48224 36.9415C0.751917 26.7357 -1.52402 9.91172 1.19318 5.94831C3.91093 1.98505 21.6328 0.145077 34.5145 0.00495246ZM74.2684 18.7139C72.8691 18.7143 71.4417 19.7594 70.1102 21.6925C69.4995 22.579 69.0287 23.4871 68.7088 24.1837C68.6402 24.3331 68.58 24.4712 68.5272 24.5948C67.7809 28.598 66.732 32.5779 65.4041 35.9522C64.3385 38.6601 63.3539 41.2143 62.2801 43.5899C64.1258 43.9794 66.0353 44.2313 67.407 44.0938C68.8427 43.9498 71.7029 42.9935 74.5789 41.2257C77.4566 39.4567 79.7789 37.2231 80.7381 34.9122C81.8459 32.243 82.2264 29.2248 82.1229 26.5909C82.0715 25.2833 81.9029 24.1274 81.6756 23.2159C81.4347 22.2499 81.1771 21.7569 81.075 21.6153C80.2842 20.5183 79.7723 19.9513 79.0291 19.545C78.2663 19.1281 76.931 18.714 74.2684 18.7139Z" fill="#B0CFCC"/>
<path d="M35.8698 12.3094C25.7124 12.164 6.19848 11.0343 6.19849 8.10241C6.1985 5.17052 24.7593 4.26522 35.8698 4.40542C46.9803 4.54562 64.1774 5.81504 63.9725 8.61245C63.8418 10.3972 46.0271 12.4548 35.8698 12.3094Z" fill="#8FB1AD"/>
<path d="M33.5134 12.5998C16.7813 12.5998 7.62866 9.48632 7.62866 9.48632C7.62866 9.48632 16.7813 7.7881 32.5123 7.78809C48.2434 7.78808 60.8282 10.0524 60.8282 10.0524C60.8282 10.0524 50.2455 12.5998 33.5134 12.5998Z" fill="#543131"/>
<path d="M17.9722 58.3643C17.8667 57.4112 17.9722 55.9053 17.9722 55.9053C17.9722 55.9053 28.1526 58.1742 34.4283 58.3643C40.704 58.5545 51.6755 56.6079 51.6755 56.6079C51.6755 57.6727 51.5669 58.6605 51.0426 59.2426C50.5679 59.7695 40.5904 60.9523 34.4283 60.9991C28.2661 61.0458 18.0777 59.3175 17.9722 58.3643Z" fill="#8FB1AD"/>
<path d="M32.4186 30.0812C35.9186 28.0812 40.345 25.5068 42.9186 28.0811C44.9187 30.0815 43.4186 30.0812 44.9186 30.5812C46.8744 31.2332 45.2416 38.8409 41.9186 42.0812C38.8654 45.0586 35.2944 46.8603 31.4186 45.0812C29.7825 44.3302 28.9156 43.5802 27.9186 42.0812C25.3942 38.2856 28.4608 32.3428 32.4186 30.0812Z" fill="#795B5B"/>
<path d="M33.4187 37.0811C30.9628 38.5911 31.4187 42.0811 31.4187 42.0811C31.4187 42.0811 33.9187 38.5811 36.9187 37.0811C38.6652 36.2078 39.2629 36.6159 40.9187 35.5811C43.1278 34.2003 41.9187 30.5811 41.9187 30.5811C41.9187 30.5811 41.1467 33.3392 39.9187 34.5811C38.0512 36.4695 35.115 36.0381 33.4187 37.0811Z" fill="#6A4444"/>
</svg>
